<svg xmlns="http://www.w3.org/2000/svg" width="1200" height="630" viewBox="0 0 1200 630" fill="none">
  <defs>
    <linearGradient id="bg" x1="0" y1="0" x2="1" y2="1">
      <stop offset="0%" stop-color="#0B0F16"/>
      <stop offset="100%" stop-color="#0E1A26"/>
    </linearGradient>
    <radialGradient id="glow" cx="0" cy="0" r="1" gradientTransform="translate(220 140) scale(420 260)">
      <stop offset="0%" stop-color="#00C2FF" stop-opacity="0.35"/>
      <stop offset="100%" stop-color="#00C2FF" stop-opacity="0"/>
    </radialGradient>
  </defs>
  <rect width="1200" height="630" fill="url(#bg)"/>
  <rect width="1200" height="630" fill="url(#glow)"/>
  <g opacity="0.35" stroke="#00C2FF" stroke-width="1">
    <path d="M0 90 H1200"/>
    <path d="M0 180 H1200"/>
    <path d="M0 270 H1200"/>
    <path d="M0 360 H1200"/>
    <path d="M0 450 H1200"/>
    <path d="M0 540 H1200"/>
    <path d="M100 0 V630"/>
    <path d="M220 0 V630"/>
    <path d="M340 0 V630"/>
    <path d="M460 0 V630"/>
    <path d="M580 0 V630"/>
    <path d="M700 0 V630"/>
    <path d="M820 0 V630"/>
    <path d="M940 0 V630"/>
    <path d="M1060 0 V630"/>
  </g>
  <text x="120" y="310" fill="#E6F6FF" font-family="Rajdhani, sans-serif" font-size="80" font-weight="700" letter-spacing="6">
    GASNET.ORG
  </text>
  <text x="120" y="380" fill="#6FE8FF" font-family="IBM Plex Mono, monospace" font-size="28" letter-spacing="1.5">
    HPC networking knowledge base & research signal
  </text>
</svg>
